# xmcd
#
# Track frame offsets:
#	150
#	14724
#	28287
#	35810
#	51209
#	66517
#	75255
#	87283
#	103771
#	121959
#	146224
#	166744
#
# Disc length: 2365 seconds
#
# Revision: 0
# Processed by: cddbd v1.5PL3 Copyright (c) Steve Scherf et al.
# Submitted via: dBpowerAMP V4.0
#
DISCID=a8093b0c
DTITLE=Fred Jaillard - Got A Song
DYEAR=1995
DGENRE=Blues
TTITLE0=The only thing i know
TTITLE1=Got a song
TTITLE2=Anyone can see
TTITLE3=A well known moment
TTITLE4=Another deadly sim
TTITLE5=Motel
TTITLE6=With the tide
TTITLE7=High Hell Sneakers
TTITLE8=Woke up too late
TTITLE9=My brother and my pride
TTITLE10=Maybe you're wrong
TTITLE11=Wiped out brain blues
EXTD=
EXTT0=
EXTT1=
EXTT2=
EXTT3=
EXTT4=
EXTT5=
EXTT6=
EXTT7=
EXTT8=
EXTT9=
EXTT10=
EXTT11=
PLAYORDER=
